<?xml version="1.0" encoding="UTF-8" standalone="no"?>
<svg
   xmlns:dc="http://purl.org/dc/elements/1.1/"
   xmlns:cc="http://creativecommons.org/ns#"
   xmlns:rdf="http://www.w3.org/1999/02/22-rdf-syntax-ns#"
   xmlns:svg="http://www.w3.org/2000/svg"
   xmlns="http://www.w3.org/2000/svg"
   xmlns:sodipodi="http://sodipodi.sourceforge.net/DTD/sodipodi-0.dtd"
   xmlns:inkscape="http://www.inkscape.org/namespaces/inkscape"
   id="visual"
   viewBox="0 0 900 80"
   width="900"
   height="80"
   version="1.1"
   sodipodi:docname="layered-waves2.svg"
   inkscape:version="1.0.1 (3bc2e813f5, 2020-09-07)">
  <metadata
     id="metadata17">
    <rdf:RDF>
      <cc:Work
         rdf:about="">
        <dc:format>image/svg+xml</dc:format>
        <dc:type
           rdf:resource="http://purl.org/dc/dcmitype/StillImage" />
        <dc:title></dc:title>
      </cc:Work>
    </rdf:RDF>
  </metadata>
  <defs
     id="defs15" />
  <sodipodi:namedview
     pagecolor="#ffffff"
     bordercolor="#666666"
     borderopacity="1"
     objecttolerance="10"
     gridtolerance="10"
     guidetolerance="10"
     inkscape:pageopacity="0"
     inkscape:pageshadow="2"
     inkscape:window-width="1920"
     inkscape:window-height="1017"
     id="namedview13"
     showgrid="false"
     inkscape:zoom="1.1577778"
     inkscape:cx="450"
     inkscape:cy="50"
     inkscape:window-x="-8"
     inkscape:window-y="-8"
     inkscape:window-maximized="1"
     inkscape:current-layer="visual" />
  <rect
     x="-1"
     y="-81"
     width="901"
     height="81"
     fill="#0e122a"
     id="rect2"
     style="stroke-width:0.9005"
     transform="scale(1,-1)" />
  <path
     d="m 0,55.661059 18.8,1.114644 c 18.9,1.021757 56.5,3.251044 94,7.430958 37.5,4.179915 74.9,10.310455 112.4,8.824264 37.5,-1.579079 75.1,-10.867777 112.6,-15.790787 37.5,-5.015897 74.9,-5.573219 112.4,-2.229288 37.5,3.436819 75.1,10.867777 112.6,12.261082 37.5,1.393305 74.9,-3.251045 112.4,-6.037654 37.5,-2.786609 75.1,-3.715479 112.6,-0.650209 37.5,3.158157 74.9,10.217568 93.5,13.84016 L 900,77.953935 V -1 h -18.7 c -18.6,0 -56,0 -93.5,0 -37.5,0 -75.1,0 -112.6,0 -37.5,0 -74.9,0 -112.4,0 -37.5,0 -75.1,0 -112.6,0 -37.5,0 -74.9,0 -112.4,0 -37.5,0 -75.1,0 -112.6,0 -37.5,0 -74.9,0 -112.4,0 -37.5,0 -75.1,0 -94,0 H 0 Z"
     fill="#092c5c"
     id="path4"
     style="stroke-width:0.963779" />
  <path
     d="m 0,47 18.8,-1.2 c 18.9,-1.1 56.5,-3.5 94,-1.3 37.5,2.2 74.9,8.8 112.4,10.5 37.5,1.7 75.1,-1.7 112.6,-4.5 37.5,-2.8 74.9,-5.2 112.4,-4.8 37.5,0.3 75.1,3.3 112.6,6.3 37.5,3 74.9,6 112.4,6.3 37.5,0.4 75.1,-2 112.6,-2.8 37.5,-0.8 74.9,-0.2 93.5,0.2 L 900,56 V -1 h -18.7 c -18.6,0 -56,0 -93.5,0 -37.5,0 -75.1,0 -112.6,0 -37.5,0 -74.9,0 -112.4,0 -37.5,0 -75.1,0 -112.6,0 -37.5,0 -74.9,0 -112.4,0 -37.5,0 -75.1,0 -112.6,0 -37.5,0 -74.9,0 -112.4,0 -37.5,0 -75.1,0 -94,0 H 0 Z"
     fill="#004c79"
     id="path6" />
  <path
     d="m 0,39 18.8,0.2 c 18.9,0.1 56.5,0.5 94,2.5 37.5,2 74.9,5.6 112.4,6.1 37.5,0.5 75.1,-2.1 112.6,-5 37.5,-2.8 74.9,-5.8 112.4,-5.8 37.5,0 75.1,3 112.6,2.5 37.5,-0.5 74.9,-4.5 112.4,-7.2 37.5,-2.6 75.1,-4 112.6,-5.1 37.5,-1.2 74.9,-2.2 93.5,-2.7 L 900,24 V -1 h -18.7 c -18.6,0 -56,0 -93.5,0 -37.5,0 -75.1,0 -112.6,0 -37.5,0 -74.9,0 -112.4,0 -37.5,0 -75.1,0 -112.6,0 -37.5,0 -74.9,0 -112.4,0 -37.5,0 -75.1,0 -112.6,0 -37.5,0 -74.9,0 -112.4,0 -37.5,0 -75.1,0 -94,0 H 0 Z"
     fill="#066e92"
     id="path8" />
  <path
     d="m 0,28 18.8,-2.2 c 18.9,-2.1 56.5,-6.5 94,-8.6 37.5,-2.2 74.9,-2.2 112.4,-0.5 37.5,1.6 75.1,5 112.6,4.1 37.5,-0.8 74.9,-5.8 112.4,-8.1 37.5,-2.4 75.1,-2 112.6,1.6 37.5,3.7 74.9,10.7 112.4,13 37.5,2.4 75.1,0 112.6,-2.6 37.5,-2.7 74.9,-5.7 93.5,-7.2 L 900,16 V -1 h -18.7 c -18.6,0 -56,0 -93.5,0 -37.5,0 -75.1,0 -112.6,0 -37.5,0 -74.9,0 -112.4,0 -37.5,0 -75.1,0 -112.6,0 -37.5,0 -74.9,0 -112.4,0 -37.5,0 -75.1,0 -112.6,0 -37.5,0 -74.9,0 -112.4,0 -37.5,0 -75.1,0 -94,0 H 0 Z"
     fill="#2d8fa5"
     id="path10" />
</svg>
