<?xml version="1.0" encoding="UTF-8" standalone="no"?>
<svg
   xmlns:dc="http://purl.org/dc/elements/1.1/"
   xmlns:cc="http://creativecommons.org/ns#"
   xmlns:rdf="http://www.w3.org/1999/02/22-rdf-syntax-ns#"
   xmlns:svg="http://www.w3.org/2000/svg"
   xmlns="http://www.w3.org/2000/svg"
   xmlns:sodipodi="http://sodipodi.sourceforge.net/DTD/sodipodi-0.dtd"
   xmlns:inkscape="http://www.inkscape.org/namespaces/inkscape"
   id="visual"
   viewBox="0 0 900 80"
   width="900"
   height="80"
   version="1.1"
   sodipodi:docname="layered-waves-haikei.svg"
   inkscape:version="1.0.1 (3bc2e813f5, 2020-09-07)">
  <metadata
     id="metadata17">
    <rdf:RDF>
      <cc:Work
         rdf:about="">
        <dc:format>image/svg+xml</dc:format>
        <dc:type
           rdf:resource="http://purl.org/dc/dcmitype/StillImage" />
        <dc:title></dc:title>
      </cc:Work>
    </rdf:RDF>
  </metadata>
  <defs
     id="defs15" />
  <sodipodi:namedview
     pagecolor="#ffffff"
     bordercolor="#666666"
     borderopacity="1"
     objecttolerance="10"
     gridtolerance="10"
     guidetolerance="10"
     inkscape:pageopacity="0"
     inkscape:pageshadow="2"
     inkscape:window-width="1920"
     inkscape:window-height="1017"
     id="namedview13"
     showgrid="false"
     inkscape:zoom="1.637345"
     inkscape:cx="368.067"
     inkscape:cy="25.885974"
     inkscape:window-x="-8"
     inkscape:window-y="-8"
     inkscape:window-maximized="1"
     inkscape:current-layer="visual" />
  <rect
     x="-1"
     y="-1"
     width="901"
     height="81"
     fill="#0e122a"
     id="rect2"
     style="stroke-width:0.9005" />
  <path
     d="M 0,0.10744821 18.8,0.2934081 c 18.9,0.0929799 56.5,0.46489972 94,5.2068769 37.5,4.834957 74.9,14.132952 112.4,13.854012 37.5,-0.37192 75.1,-10.2277942 112.6,-9.9488543 37.5,0.2789398 74.9,10.8786533 112.4,12.0873923 37.5,1.20874 75.1,-6.787535 112.6,-9.297994 37.5,-2.5104585 74.9,0.65086 112.4,0.18596 37.5,-0.4649 75.1,-4.5560174 112.6,-3.2542982 37.5,1.2087392 74.9,7.7173352 93.5,10.9716332 L 900,23.352434 V 81 h -18.7 c -18.6,0 -56,0 -93.5,0 -37.5,0 -75.1,0 -112.6,0 -37.5,0 -74.9,0 -112.4,0 -37.5,0 -75.1,0 -112.6,0 -37.5,0 -74.9,0 -112.4,0 -37.5,0 -75.1,0 -112.6,0 -37.5,0 -74.9,0 -112.4,0 -37.5,0 -75.1,0 -94,0 H 0 Z"
     fill="#092c5c"
     id="path4"
     style="stroke-width:0.964261" />
  <path
     d="m 0,27 18.8,-2.2 c 18.9,-2.1 56.5,-6.5 94,-7 37.5,-0.5 74.9,2.9 112.4,6.4 37.5,3.5 75.1,7.1 112.6,10 37.5,2.8 74.9,4.8 112.4,2 37.5,-2.9 75.1,-10.5 112.6,-13 37.5,-2.5 74.9,0.1 112.4,4.3 37.5,4.2 75.1,9.8 112.6,12.2 37.5,2.3 74.9,1.3 93.5,0.8 L 900,40 v 41 h -18.7 c -18.6,0 -56,0 -93.5,0 -37.5,0 -75.1,0 -112.6,0 -37.5,0 -74.9,0 -112.4,0 -37.5,0 -75.1,0 -112.6,0 -37.5,0 -74.9,0 -112.4,0 -37.5,0 -75.1,0 -112.6,0 -37.5,0 -74.9,0 -112.4,0 -37.5,0 -75.1,0 -94,0 H 0 Z"
     fill="#004c79"
     id="path6" />
  <path
     d="m 0,54 18.8,-2.2 c 18.9,-2.1 56.5,-6.5 94,-9.3 37.5,-2.8 74.9,-4.2 112.4,-3.8 37.5,0.3 75.1,2.3 112.6,5.3 37.5,3 74.9,7 112.4,5.8 37.5,-1.1 75.1,-7.5 112.6,-9.3 37.5,-1.8 74.9,0.8 112.4,4.3 37.5,3.5 75.1,7.9 112.6,6.7 37.5,-1.2 74.9,-7.8 93.5,-11.2 L 900,37 v 44 h -18.7 c -18.6,0 -56,0 -93.5,0 -37.5,0 -75.1,0 -112.6,0 -37.5,0 -74.9,0 -112.4,0 -37.5,0 -75.1,0 -112.6,0 -37.5,0 -74.9,0 -112.4,0 -37.5,0 -75.1,0 -112.6,0 -37.5,0 -74.9,0 -112.4,0 -37.5,0 -75.1,0 -94,0 H 0 Z"
     fill="#066e92"
     id="path8" />
  <path
     d="m 0,68 18.8,0.3 c 18.9,0.4 56.5,1 94,1.2 37.5,0.2 74.9,-0.2 112.4,-3 37.5,-2.8 75.1,-8.2 112.6,-10.5 37.5,-2.3 74.9,-1.7 112.4,-2.2 37.5,-0.5 75.1,-2.1 112.6,-2 37.5,0.2 74.9,2.2 112.4,3.7 37.5,1.5 75.1,2.5 112.6,1.8 37.5,-0.6 74.9,-3 93.5,-4.1 L 900,52 v 29 h -18.7 c -18.6,0 -56,0 -93.5,0 -37.5,0 -75.1,0 -112.6,0 -37.5,0 -74.9,0 -112.4,0 -37.5,0 -75.1,0 -112.6,0 -37.5,0 -74.9,0 -112.4,0 -37.5,0 -75.1,0 -112.6,0 -37.5,0 -74.9,0 -112.4,0 -37.5,0 -75.1,0 -94,0 H 0 Z"
     fill="#2d8fa5"
     id="path10" />
</svg>
